<?xml version="1.0" encoding="UTF-8" standalone="no"?>
<svg
   id="Warstwa_1"
   data-name="Warstwa 1"
   width="1595.3795"
   height="482.19489"
   viewBox="0 0 1595.3795 482.1949"
   version="1.1"
   xmlns="http://www.w3.org/2000/svg"
   xmlns:svg="http://www.w3.org/2000/svg">
  <defs
     id="defs9">
    <style
       id="style2">.cls-1{fill:#fff;}.cls-2{fill:url(#Gradient_bez_nazwy_42);}</style>
    <linearGradient
       id="Gradient_bez_nazwy_42"
       x1="258.80328"
       y1="211.17854"
       x2="695.34314"
       y2="647.71838"
       gradientUnits="userSpaceOnUse"
       gradientTransform="translate(-211.77973,-171.96493)">
      <stop
         offset="0"
         stop-color="#ff9e29"
         id="stop4" />
      <stop
         offset="1"
         stop-color="#f97c00"
         id="stop6" />
    </linearGradient>
  </defs>
  <path
     class="cls-1"
     d="m 595.07305,39.8148 h 52.50076 v 86.017 l 71.48187,-86.017 h 62.28859 l -83.94063,100.84693 89.57716,106.48349 h -62.29024 l -77.11675,-91.65361 v 91.65361 h -52.50076 z"
     id="path11" />
  <path
     class="cls-1"
     d="M 867.95747,168.24673 791.43007,39.8148 h 56.0609 l 46.8642,80.38047 48.9406,-80.38047 h 55.7628 l -78.6021,128.43193 v 78.89849 h -52.499 z"
     id="path13" />
  <path
     class="cls-1"
     d="m 1043.4052,237.95022 a 102.37634,102.37634 0 0 1 -40.042,-38.11378 q -14.68173,-24.47033 -14.68343,-56.20907 0,-31.7354 14.68343,-56.35559 a 102.11256,102.11256 0 0 1 40.042,-38.26367 q 25.3594,-13.6384 56.8018,-13.64262 31.1418,0 56.5038,13.64262 a 101.09067,101.09067 0 0 1 39.8938,38.26367 q 14.5302,24.62441 14.5335,56.35559 0,31.743 -14.5335,56.20907 a 101.34563,101.34563 0 0 1 -39.8938,38.11378 q -25.362,13.646 -56.5038,13.6443 -31.4449,0 -56.8018,-13.6443 z m 85.5724,-42.71128 a 52.96844,52.96844 0 0 0 20.7612,-20.46646 q 7.7096,-13.3479 7.713,-31.14511 0,-17.79638 -7.5632,-30.99524 a 53.31644,53.31644 0 0 0 -20.6146,-20.46646 62.36707,62.36707 0 0 0 -58.4337,0 53.27828,53.27828 0 0 0 -20.613,20.46646 q -7.5632,13.20139 -7.5649,30.99524 0,17.79636 7.5649,31.14511 a 51.6703,51.6703 0 0 0 20.7611,20.46646 60.54963,60.54963 0 0 0 29.2186,7.11855 59.10755,59.10755 0 0 0 28.7706,-7.11855 z"
     id="path15" />
  <path
     class="cls-1"
     d="m 1277.9433,84.00974 h -58.432 V 39.8148 h 169.6612 v 44.19494 h -58.7284 v 163.13548 h -52.5008 z"
     id="path17" />
  <path
     class="cls-1"
     d="m 1430.7604,226.53057 q -23.7327,-25.06143 -23.7285,-66.29326 V 39.8148 h 52.5008 v 121.017 q 0,20.76454 11.1232,31.43983 11.1224,10.67783 30.6989,10.67867 19.5747,0 30.5506,-10.67867 10.9709,-10.67781 10.9751,-31.43983 V 39.8148 h 52.4991 v 120.42251 q 0,41.53159 -23.5803,66.44146 -23.5812,24.91491 -70.4445,24.91575 -46.8693,0 -70.5944,-25.06395 z"
     id="path19" />
  <path
     class="cls-1"
     d="M 659.20866,337.92032 H 631.28678 V 476.43888 H 615.58073 V 337.92032 h -27.7041 v -14.17969 h 71.332 z"
     id="path21" />
  <path
     class="cls-1"
     d="M 685.81901,476.43888 V 323.74063 h 61.7334 v 14.17969 h -46.02735 v 54.09863 h 39.26563 v 13.96094 h -39.26563 v 56.28027 h 46.68164 v 14.17872 z"
     id="path23" />
  <path
     class="cls-1"
     d="m 850.51337,445.89884 c 0,22.25 -12.6524,32.28515 -35.7754,32.28515 h -0.4365 c -23.1221,0 -35.77445,-9.8164 -35.77445,-32.28515 v -91.61817 c 0,-21.37793 12.65235,-32.28515 35.77445,-32.28515 h 0.4365 c 23.123,0 35.7754,10.90722 35.7754,32.28515 v 26.61231 h -15.707 v -22.68555 c 0,-15.707 -5.8897,-22.03223 -20.2862,-22.03223 -14.3974,0 -20.2871,6.3252 -20.2871,22.03223 v 83.76564 c 0,15.70508 5.8897,22.03125 20.2871,22.03125 14.3965,0 20.2862,-6.32617 20.2862,-22.03125 v -26.3955 h 15.707 z"
     id="path25" />
  <path
     class="cls-1"
     d="m 901.33757,323.74063 v 67.8418 h 42.9736 v -67.8418 h 15.7061 v 152.69825 h -15.706 v -70.459 h -42.9737 v 70.459 h -15.706 V 323.74063 Z"
     id="path27" />
  <path
     class="cls-1"
     d="M 996.88247,476.43888 V 323.74063 h 15.92483 l 44.7178,115.832 v -115.832 h 14.6162 v 152.69825 h -15.0517 L 1011.4978,358.4252 v 118.01368 z"
     id="path29" />
  <path
     class="cls-1"
     d="m 1143.9089,321.99552 h 1.7451 c 23.123,0 35.7754,10.4707 35.7754,32.28515 v 91.61817 c 0,21.81445 -12.6523,32.28515 -35.7754,32.28515 h -1.7451 c -23.1221,0 -35.7744,-10.4707 -35.7744,-32.28515 v -91.61817 c 0,-22.03222 12.6523,-32.28515 35.7744,-32.28515 z m 0.873,142.00878 c 14.6152,0 20.9414,-6.10742 20.9414,-22.03125 v -83.76562 c 0,-15.9248 -6.3262,-22.03223 -20.9414,-22.03223 -14.6152,0 -20.9414,6.10743 -20.9414,22.03223 v 83.76564 c 0,15.92381 6.3262,22.03123 20.9414,22.03123 z"
     id="path31" />
  <path
     class="cls-1"
     d="m 1276.5378,476.43888 h -59.1162 V 323.74063 h 15.706 v 138.30078 h 43.4102 z"
     id="path33" />
  <path
     class="cls-1"
     d="m 1338.7077,321.99552 h 1.7451 c 23.123,0 35.7754,10.4707 35.7754,32.28515 v 91.61817 c 0,21.81445 -12.6523,32.28515 -35.7754,32.28515 h -1.7451 c -23.1221,0 -35.7744,-10.4707 -35.7744,-32.28515 v -91.61817 c 0,-22.03222 12.6523,-32.28515 35.7744,-32.28515 z m 0.8731,142.00878 c 14.6152,0 20.9414,-6.10742 20.9414,-22.03125 v -83.76562 c 0,-15.9248 -6.3262,-22.03223 -20.9414,-22.03223 -14.6153,0 -20.9414,6.10743 -20.9414,22.03223 v 83.76564 c 0,15.92381 6.3261,22.03123 20.9414,22.03123 z"
     id="path35" />
  <path
     class="cls-1"
     d="m 1484.6442,445.89884 c 0,22.25 -12.6523,32.28515 -35.7754,32.28515 h -1.7451 c -23.122,0 -35.7744,-9.8164 -35.7744,-32.28515 v -91.61817 c 0,-21.37793 12.6524,-32.28515 35.7744,-32.28515 h 1.7451 c 23.1231,0 35.7754,10.90722 35.7754,32.28515 v 20.50488 h -15.706 v -16.57812 c 0,-15.9248 -6.3262,-22.03223 -20.9414,-22.03223 -14.6153,0 -20.9414,6.10743 -20.9414,22.03223 v 83.76564 c 0,15.92383 6.3261,22.03125 20.9414,22.03125 14.6152,0 20.9414,-6.10742 20.9414,-22.03125 v -28.14064 h -21.8145 v -13.96094 h 37.5205 z"
     id="path37" />
  <path
     class="cls-1"
     d="m 1559.6843,476.43888 h -15.706 v -58.0254 l -32.9395,-94.67285 h 16.3613 l 24.4317,76.78516 24.6494,-76.78516 h 16.1426 l -32.9395,94.67285 z"
     id="path39" />
  <path
     class="cls-2"
     d="m 102.96679,436.59087 v 45.604 H 48.5185 V 382.14199 Z M 59.84241,86.83507 v 83.54008 l 186.99546,187.0193 v 124.80041 h 54.44888 V 328.37653 Z M 0,180.38166 v 83.54008 l 147.67789,147.55574 v 70.71738 h 54.44888 V 382.4834 Z m 389.95163,-139.6734 54.44889,54.47331 h 45.604 V 40.70826 Z m 29.3355,99.16 L 296.06363,16.59588 H 212.49912 L 390.29365,194.31712 H 490.0045 V 139.86824 Z M 365.20469,239.02764 126.22593,0 H 42.70968 l 293.4765,293.47651 H 490.0045 v -54.44889 z m -19.20744,99.16 V 482.19486 H 490.0045 V 338.18761 Z"
     id="path41"
     style="fill:url(#Gradient_bez_nazwy_42)" />
</svg>
