<svg id="Warstwa_1" data-name="Warstwa 1" xmlns="http://www.w3.org/2000/svg" xmlns:xlink="http://www.w3.org/1999/xlink" width="2018.93898" height="856.12502" viewBox="0 0 2018.93898 856.12502"><defs><style>.cls-1{fill:#0f0f0f;}.cls-2{fill:url(#Gradient_bez_nazwy_42);}</style><linearGradient id="Gradient_bez_nazwy_42" x1="258.80328" y1="211.17854" x2="695.34313" y2="647.71839" gradientUnits="userSpaceOnUse"><stop offset="0" stop-color="#ff9e29"/><stop offset="1" stop-color="#f97c00"/></linearGradient></defs><path class="cls-1" d="M806.85278,211.77973h52.50076v86.017l71.48187-86.017H993.124L909.18337,312.62666l89.57716,106.48349H936.47029l-77.11675-91.65361v91.65361H806.85278Z"/><path class="cls-1" d="M1079.73716,340.21166l-76.52733-128.43193h56.06087l46.8642,80.38047,48.94064-80.38047h55.76279l-78.6021,128.43193v78.89849h-52.49907Z"/><path class="cls-1" d="M1255.18485,409.91515a102.37634,102.37634,0,0,1-40.042-38.11378q-14.68169-24.47033-14.68337-56.20907,0-31.7354,14.68337-56.35559a102.11256,102.11256,0,0,1,40.042-38.26367q25.35949-13.6384,56.80186-13.64262,31.14175,0,56.50378,13.64262a101.09067,101.09067,0,0,1,39.89385,38.26367q14.53011,24.62441,14.53349,56.35559,0,31.743-14.53349,56.20907a101.34563,101.34563,0,0,1-39.89385,38.11378q-25.362,13.646-56.50378,13.6443Q1280.54184,423.55945,1255.18485,409.91515Zm85.57244-42.71128a52.96844,52.96844,0,0,0,20.76117-20.46646q7.70965-13.3479,7.713-31.14511,0-17.79638-7.56314-30.99524a53.31644,53.31644,0,0,0-20.61465-20.46646,62.36707,62.36707,0,0,0-58.43372,0,53.27828,53.27828,0,0,0-20.613,20.46646q-7.56315,13.20139-7.56483,30.99524,0,17.79636,7.56483,31.14511a51.6703,51.6703,0,0,0,20.76116,20.46646,60.54963,60.54963,0,0,0,29.21855,7.11855A59.10755,59.10755,0,0,0,1340.75729,367.20387Z"/><path class="cls-1" d="M1489.723,255.97467h-58.432V211.77973h169.66123v44.19494h-58.72843V419.11015H1489.723Z"/><path class="cls-1" d="M1642.54011,398.4955q-23.7327-25.06143-23.72849-66.29326V211.77973h52.50076v121.017q0,20.76454,11.12326,31.43983,11.12241,10.67783,30.69884,10.67867,19.57475,0,30.55064-10.67867,10.97085-10.67781,10.97506-31.43983v-121.017h52.49908V332.20224q0,41.53159-23.5803,66.44146-23.58112,24.91491-70.44448,24.91575Q1666.26524,423.55945,1642.54011,398.4955Z"/><path class="cls-1" d="M870.98839,509.88525H843.06651V648.40381H827.36046V509.88525h-27.7041V495.70556h71.332Z"/><path class="cls-1" d="M897.59874,648.40381V495.70556h61.7334v14.17969H913.30479v54.09863h39.26563v13.96094H913.30479v56.28027h46.68164v14.17872Z"/><path class="cls-1" d="M1062.29307,617.86377c0,22.25-12.65234,32.28515-35.77539,32.28515h-.43652c-23.12207,0-35.77441-9.8164-35.77441-32.28515V526.2456c0-21.37793,12.65234-32.28515,35.77441-32.28515h.43652c23.12305,0,35.77539,10.90722,35.77539,32.28515v26.61231h-15.707V530.17236c0-15.707-5.88965-22.03223-20.28613-22.03223-14.39746,0-20.28711,6.3252-20.28711,22.03223V613.938c0,15.70508,5.88965,22.03125,20.28711,22.03125,14.39648,0,20.28613-6.32617,20.28613-22.03125v-26.3955h15.707Z"/><path class="cls-1" d="M1113.11729,495.70556v67.8418h42.97364v-67.8418H1171.797V648.40381h-15.70605v-70.459h-42.97364v70.459h-15.70605V495.70556Z"/><path class="cls-1" d="M1208.66222,648.40381V495.70556h15.9248l44.71777,115.832v-115.832H1283.921V648.40381h-15.05175l-45.5918-118.01368V648.40381Z"/><path class="cls-1" d="M1355.68858,493.96045h1.74512c23.123,0,35.77539,10.4707,35.77539,32.28515v91.61817c0,21.81445-12.65234,32.28515-35.77539,32.28515h-1.74512c-23.12207,0-35.77441-10.4707-35.77441-32.28515V526.2456C1319.91417,504.21338,1332.56651,493.96045,1355.68858,493.96045Zm.873,142.00878c14.61523,0,20.94141-6.10742,20.94141-22.03125V530.17236c0-15.9248-6.32618-22.03223-20.94141-22.03223s-20.94141,6.10743-20.94141,22.03223V613.938C1335.62022,629.86181,1341.94639,635.96923,1356.56163,635.96923Z"/><path class="cls-1" d="M1488.31749,648.40381h-59.11621V495.70556h15.70605V634.00634h43.41016Z"/><path class="cls-1" d="M1550.48741,493.96045h1.74512c23.123,0,35.77539,10.4707,35.77539,32.28515v91.61817c0,21.81445-12.65235,32.28515-35.77539,32.28515h-1.74512c-23.12207,0-35.77441-10.4707-35.77441-32.28515V526.2456C1514.713,504.21338,1527.36534,493.96045,1550.48741,493.96045Zm.87305,142.00878c14.61523,0,20.9414-6.10742,20.9414-22.03125V530.17236c0-15.9248-6.32617-22.03223-20.9414-22.03223s-20.94141,6.10743-20.94141,22.03223V613.938C1530.41905,629.86181,1536.74522,635.96923,1551.36046,635.96923Z"/><path class="cls-1" d="M1696.42393,617.86377c0,22.25-12.65234,32.28515-35.77539,32.28515h-1.74511c-23.12207,0-35.77442-9.8164-35.77442-32.28515V526.2456c0-21.37793,12.65235-32.28515,35.77442-32.28515h1.74511c23.12305,0,35.77539,10.90722,35.77539,32.28515v20.50488h-15.70605V530.17236c0-15.9248-6.32617-22.03223-20.94141-22.03223s-20.9414,6.10743-20.9414,22.03223V613.938c0,15.92383,6.32617,22.03125,20.9414,22.03125s20.94141-6.10742,20.94141-22.03125V585.79736h-21.81445V571.83642h37.5205Z"/><path class="cls-1" d="M1771.464,648.40381h-15.70605v-58.0254l-32.93945-94.67285h16.36132l24.43164,76.78516,24.64942-76.78516h16.14258L1771.464,590.37841Z"/><path class="cls-2" d="M314.74652,608.5558v45.604H260.29823V554.10692ZM271.62214,258.8v83.54008L458.6176,529.35938V654.15979h54.44888V500.34146Zm-59.84241,93.54659v83.54008L359.45762,583.44241v70.71738H413.9065V554.44833Zm389.95163-139.6734,54.44889,54.47331h45.604V212.67319Zm29.3355,99.16L507.84336,188.56081H424.27885L602.07338,366.28205h99.71085V311.83317Zm-54.08244,99.15938L338.00566,171.96493H254.48941l293.4765,293.47651H701.78423V410.99255Zm-19.20744,99.16V654.15979H701.78423V510.15254Z"/></svg>