<svg id="Warstwa_1" data-name="Warstwa 1" xmlns="http://www.w3.org/2000/svg" xmlns:xlink="http://www.w3.org/1999/xlink" width="1585.09447" height="1855.29412" viewBox="0 0 1585.09447 1855.29412"><defs><style>.cls-1{fill:url(#Gradient_bez_nazwy_42);}.cls-2{fill:#fff;}</style><linearGradient id="Gradient_bez_nazwy_42" x1="476.16927" y1="294.44837" x2="1129.66755" y2="947.94666" gradientUnits="userSpaceOnUse"><stop offset="0" stop-color="#ff9e29"/><stop offset="1" stop-color="#f97c00"/></linearGradient></defs><path class="cls-1" d="M559.91605,889.32043v68.269H478.4072V807.81069ZM495.359,365.7375V490.79664l279.9314,279.96708V957.5894h81.50974V727.324ZM405.77521,505.77634V630.83548L626.84837,851.7258V957.5894h81.50974V808.32178ZM989.53113,296.68586l81.50974,81.54632h68.269V296.68586Zm43.91511,148.44207L848.98119,260.58974H723.88548L990.04312,526.63767h149.26672V445.12793ZM952.48506,593.5691,594.73488,235.74578H469.71141L909.04448,675.07884h230.26536V593.5691ZM923.73161,742.01116V957.5894h215.57823V742.01116Z"/><path class="cls-2" d="M235.84255,1136.08156h58.442v95.75116l79.57111-95.75116H443.1931l-93.43972,112.25927,99.71416,118.5337H380.12823l-85.84367-102.02559v102.02559h-58.442Z"/><path class="cls-2" d="M539.60789,1279.04749l-85.18755-142.96593h62.405l52.16757,89.47673,54.479-89.47673h62.07319L598.048,1279.04749v87.827H539.60789Z"/><path class="cls-2" d="M734.91011,1356.639a113.96183,113.96183,0,0,1-44.5734-42.42693q-16.34315-27.23951-16.345-62.57,0-35.32672,16.345-62.73307a113.6681,113.6681,0,0,1,44.5734-42.59377q28.22931-15.1818,63.22984-15.18649,34.66591,0,62.898,15.18649a112.53053,112.53053,0,0,1,44.40842,42.59377q16.17443,27.411,16.17818,62.73307,0,35.33514-16.17818,62.57A112.81444,112.81444,0,0,1,861.038,1356.639q-28.23213,15.19023-62.898,15.18836Q763.13661,1371.82734,734.91011,1356.639Zm95.25625-47.54471a58.9626,58.9626,0,0,0,23.1106-22.78254q8.58213-14.85843,8.58587-34.66965,0-19.8103-8.419-34.50282a59.35,59.35,0,0,0-22.94751-22.78254,69.42486,69.42486,0,0,0-65.04638,0,59.30761,59.30761,0,0,0-22.94563,22.78254q-8.419,14.69534-8.4209,34.50282,0,19.81029,8.4209,34.66965a57.51752,57.51752,0,0,0,23.1106,22.78254,67.40171,67.40171,0,0,0,32.52506,7.92412A65.79648,65.79648,0,0,0,830.16636,1309.09427Z"/><path class="cls-2" d="M995.98973,1185.27783h-65.0445v-49.19627h188.861v49.19627h-65.37444v181.5967h-58.442Z"/><path class="cls-2" d="M1166.10043,1343.927q-26.41842-27.89751-26.41373-73.79534V1136.08156h58.442v134.71187q0,23.11435,12.382,34.99772,12.38108,11.88618,34.17287,11.88711,21.78991,0,34.00791-11.88711,12.21236-11.88618,12.217-34.99772V1136.08156h58.44013v134.05012q0,46.23152-26.24875,73.96031-26.2497,27.73442-78.41634,27.73535Q1192.51041,1371.82734,1166.10043,1343.927Z"/><path class="cls-2" d="M313.12209,1467.16456H282.4053v152.38379H265.127V1467.16456H234.65042v-15.59863h78.47167Z"/><path class="cls-2" d="M342.39846,1619.54835V1451.56593h67.91211v15.59863H359.67581v59.51367h43.19628v15.3584H359.67581v61.91309h51.35546v15.59863Z"/><path class="cls-2" d="M523.57913,1585.95167c0,24.47754-13.91895,35.5166-39.35645,35.5166h-.47949c-25.4375,0-39.35547-10.79883-39.35547-35.5166V1485.16261c0-23.51758,13.918-35.51661,39.35547-35.51661h.47949c25.4375,0,39.35645,11.999,39.35645,35.51661V1514.439H506.30081v-24.957c0-17.27832-6.4795-24.2373-22.31739-24.2373-15.83886,0-22.31836,6.959-22.31836,24.2373v92.15039c0,17.27832,6.4795,24.23731,22.31836,24.23731,15.83789,0,22.31739-6.959,22.31739-24.23731v-29.03711h17.27832Z"/><path class="cls-2" d="M579.49319,1451.56593v74.63183h47.27539v-74.63183H644.0469v167.98242H626.76858v-77.51172H579.49319v77.51172H562.21584V1451.56593Z"/><path class="cls-2" d="M684.60549,1619.54835V1451.56593h17.51758l49.19531,127.42675V1451.56593h16.07813v167.98242H750.83792l-50.1543-129.82617v129.82617Z"/><path class="cls-2" d="M846.34963,1449.646h1.91993c25.4375,0,39.35546,11.51856,39.35546,35.51661v100.78906c0,23.99707-13.918,35.5166-39.35546,35.5166h-1.91993c-25.4375,0-39.35546-11.51953-39.35546-35.5166V1485.16261C806.99417,1460.9253,820.91213,1449.646,846.34963,1449.646Zm.96,156.22364c16.07813,0,23.03711-6.71973,23.03711-24.23731v-92.15039c0-17.51855-6.959-24.2373-23.03711-24.2373s-23.03808,6.71875-23.03808,24.2373v92.15039C824.27151,1599.14991,831.23147,1605.86964,847.30959,1605.86964Z"/><path class="cls-2" d="M992.25784,1619.54835H927.22463V1451.56593H944.502v152.14453h47.75586Z"/><path class="cls-2" d="M1060.65139,1449.646h1.91992c25.4375,0,39.35547,11.51856,39.35547,35.51661v100.78906c0,23.99707-13.918,35.5166-39.35547,35.5166h-1.91992c-25.4375,0-39.35547-11.51953-39.35547-35.5166V1485.16261C1021.29592,1460.9253,1035.21389,1449.646,1060.65139,1449.646Zm.96,156.22364c16.07813,0,23.03711-6.71973,23.03711-24.23731v-92.15039c0-17.51855-6.959-24.2373-23.03711-24.2373s-23.03808,6.71875-23.03808,24.2373v92.15039C1038.57327,1599.14991,1045.53323,1605.86964,1061.61135,1605.86964Z"/><path class="cls-2" d="M1221.19729,1585.95167c0,24.47754-13.918,35.5166-39.35547,35.5166h-1.91992c-25.4375,0-39.35547-10.79883-39.35547-35.5166V1485.16261c0-23.51758,13.918-35.51661,39.35547-35.51661h1.91992c25.4375,0,39.35547,11.999,39.35547,35.51661v22.55761H1203.919v-18.23828c0-17.51855-6.959-24.2373-23.03711-24.2373s-23.03809,6.71875-23.03809,24.2373v92.15039c0,17.51758,6.96,24.23731,23.03809,24.23731s23.03711-6.71973,23.03711-24.23731v-30.957H1179.9219v-15.3584h41.27539Z"/><path class="cls-2" d="M1303.751,1619.54835h-17.27734v-63.833l-36.23633-104.14941h17.99805l26.87695,84.4707,27.11719-84.4707h17.75781L1303.751,1555.71534Z"/></svg>